<svg xmlns="http://www.w3.org/2000/svg" width="24.766" height="24.94" viewBox="0 0 24.766 24.94">
    <defs>
        <style>
            .cls-1{fill:#686f79;stroke:#686f79;stroke-width:.3px}
        </style>
    </defs>
    <g id="Group_17" data-name="Group 17" transform="translate(-5127.218 -3535.795)">
        <path id="home_9_" d="M24.48 11.218l-3.657-3.4V2.26h-4.212v1.652L12.4 0 .317 11.218a.421.421 0 1 0 .574.618l1.4-1.3v14.05h20.22V10.537l1.4 1.3a.421.421 0 0 0 .573-.617zM17.453 3.1h2.527v3.941l-2.527-2.347zM9.871 23.743v-8.872a.4.4 0 0 1 .395-.395h4.265a.4.4 0 0 1 .395.395v8.873H9.871zm11.795 0h-5.9v-8.872a1.238 1.238 0 0 0-1.237-1.237h-4.263a1.238 1.238 0 0 0-1.237 1.237v8.873h-5.9V9.755L12.4 1.15l6.015 5.586 2.41 2.237.842.782z" class="cls-1" data-name="home (9)" transform="translate(5127.219 3536)"/>
    </g>
</svg>
