<svg xmlns="http://www.w3.org/2000/svg" width="34.115" height="27.711" viewBox="0 0 34.115 27.711">
    <defs>
        <style>
            .cls-1{fill:#686f79;stroke:#686f79;stroke-width:.1px}.cls-2{fill:#e82752}.cls-3{fill:#fff;font-size:13px;font-family:SFProText-Regular,SF Pro Text;letter-spacing:-.012em}
        </style>
    </defs>
    <g id="Group_19" data-name="Group 19" transform="translate(-5275.95 -3532.95)">
        <path id="Path_4" d="M25.27-3.742a8.741 8.741 0 0 0-8.728 8.233H3.236A3.24 3.24 0 0 0 .027 7.314a.48.48 0 0 0-.022.229C0 7.6 0 7.665 0 7.727v12.906A3.222 3.222 0 0 0 .747 22.7a.476.476 0 0 0 .16.178 3.226 3.226 0 0 0 2.329.993h19.28a3.226 3.226 0 0 0 2.327-.99A.481.481 0 0 0 25 22.7a3.221 3.221 0 0 0 .748-2.067v-6.9a8.745 8.745 0 0 0-.478-17.475zM3.236 5.455h13.3a8.7 8.7 0 0 0 2.376 5.553 9 9 0 0 0 .674.643l-5.416 4.594a1.991 1.991 0 0 1-2.582 0L1.007 7.286a2.276 2.276 0 0 1 2.229-1.831zm0 17.45a2.263 2.263 0 0 1-1.363-.456L7.687 16.5A.482.482 0 1 0 7 15.828l-5.76 5.89a2.259 2.259 0 0 1-.276-1.085V8.512l10 8.47a2.951 2.951 0 0 0 3.828 0l5.576-4.729a8.635 8.635 0 0 0 4.417 1.484v6.9a2.255 2.255 0 0 1-.278 1.088l-5.793-5.894a.482.482 0 0 0-.687.676l5.847 5.949a2.261 2.261 0 0 1-1.36.453zM25.27 12.783a7.7 7.7 0 0 1-4.6-1.505.511.511 0 0 0-.064-.048 7.929 7.929 0 0 1-.988-.884 7.781 7.781 0 1 1 5.656 2.438zm0 0" class="cls-1" data-name="Path 4" transform="translate(5276 3536.742)"/>
        <circle id="Ellipse_5" cx="8.5" cy="8.5" r="8.5" class="cls-2" data-name="Ellipse 5" transform="translate(5293 3533)"/>
        <text id="_5" class="cls-3" data-name="5" transform="translate(5301 3546)">
            <tspan x="-4.021" y="0">5</tspan>
        </text>
    </g>
</svg>
