<svg xmlns="http://www.w3.org/2000/svg" width="25.662" height="19.286" viewBox="0 0 25.662 19.286">
  <path id="mail_4_" data-name="mail (4)" d="M2.913,15.036H22.749a2.917,2.917,0,0,0,2.913-2.913V-1.337A2.917,2.917,0,0,0,22.749-4.25H2.913A2.917,2.917,0,0,0,0-1.337v13.46A2.917,2.917,0,0,0,2.913,15.036Zm0-.868a2.032,2.032,0,0,1-1.239-.419L7.607,7.682a.434.434,0,1,0-.621-.606L1.11,13.086a2.036,2.036,0,0,1-.242-.963V-.38L10.952,8.159a2.9,2.9,0,0,0,3.767,0L24.794-.388V12.123a2.032,2.032,0,0,1-.243.967L18.639,7.074a.434.434,0,0,0-.619.608l5.965,6.069a2.033,2.033,0,0,1-1.236.417Zm0-17.551H22.749a2.048,2.048,0,0,1,2.037,1.863L14.158,7.5a2.039,2.039,0,0,1-2.645,0L.876-1.511A2.048,2.048,0,0,1,2.913-3.382Zm0,0" transform="translate(0 4.25)" fill="#686f79"/>
</svg>
