<svg xmlns="http://www.w3.org/2000/svg" width="22.583" height="22.583" viewBox="0 0 22.583 22.583">
    <defs>
        <style>
            .cls-1{fill:#686f79}
        </style>
    </defs>
    <path id="Path_5" d="M11.291 15.526c3.5 0 6.351-3.483 6.351-7.763S14.793 0 11.291 0a5.8 5.8 0 0 0-4.543 2.332A8.689 8.689 0 0 0 4.94 7.764c0 4.278 2.849 7.762 6.351 7.762zm0-14.114c2.723 0 4.94 2.849 4.94 6.351s-2.217 6.351-4.94 6.351-4.94-2.85-4.941-6.351 2.217-6.351 4.941-6.351zm4.94 12.7a.706.706 0 1 0 0 1.411 4.946 4.946 0 0 1 4.94 4.94.707.707 0 0 1-.706.706H2.117a.707.707 0 0 1-.706-.706 4.946 4.946 0 0 1 4.94-4.94.706.706 0 0 0 0-1.411A6.358 6.358 0 0 0 0 20.466a2.12 2.12 0 0 0 2.117 2.117h18.349a2.12 2.12 0 0 0 2.117-2.117 6.359 6.359 0 0 0-6.352-6.352z" class="cls-1" data-name="Path 5"/>
</svg>
