<svg xmlns="http://www.w3.org/2000/svg" id="picture_2_" width="18.359" height="18.36" data-name="picture (2)" viewBox="0 0 18.359 18.36">
    <defs>
        <style>
            .cls-1{fill:#797979}
        </style>
    </defs>
    <g id="Group_30" data-name="Group 30">
        <path id="Path_32" d="M0 16.424a1.938 1.938 0 0 0 1.936 1.936h14.488a1.938 1.938 0 0 0 1.936-1.936V1.936A1.938 1.938 0 0 0 16.424 0H1.936A1.938 1.938 0 0 0 0 1.936zm16.424 1.017H1.936a1.02 1.02 0 0 1-1.017-1.017V14L4.4 10.523 7.375 13.5a.457.457 0 0 0 .649 0L13.4 8.126l4.044 4.044v4.254a1.02 1.02 0 0 1-1.02 1.017zM1.936.919h14.488a1.02 1.02 0 0 1 1.017 1.017v8.932L13.719 7.15a.457.457 0 0 0-.649 0L7.7 12.523 4.723 9.548a.457.457 0 0 0-.649 0L.919 12.7V1.936A1.02 1.02 0 0 1 1.936.919z" class="cls-1" data-name="Path 32"/>
        <path id="Path_33" d="M91.737 76.174a2.337 2.337 0 1 0-2.337-2.337 2.34 2.34 0 0 0 2.337 2.337zm0-3.755a1.418 1.418 0 1 1-1.418 1.418 1.419 1.419 0 0 1 1.418-1.418z" class="cls-1" data-name="Path 33" transform="translate(-86.046 -68.818)"/>
    </g>
</svg>
