<svg xmlns="http://www.w3.org/2000/svg" width="77.866" height="47.261" viewBox="0 0 77.866 47.261">
    <defs>
        <style>
            .cls-1{fill:#054085}.cls-2{fill:#72b431}.cls-3{fill:#eaa620}.cls-4{fill:#8b2583}.cls-5{fill:#ef172f}.cls-6{fill:#db1040}
        </style>
    </defs>
    <g id="Group_46" data-name="Group 46" transform="translate(-179.545 -102.604)">
        <g id="Group_43" data-name="Group 43" transform="translate(179.545 117.516)">
            <path id="Path_48" d="M183.7 228.873l.1 1.648c1.711-1.418 2.737-1.916 3.959-1.916a3.523 3.523 0 0 1 2.59 1.073c.538.652.684 1.38.684 3.3v14.948h-4.252V233.09c0-.92-.342-1.418-1.075-1.418a3.3 3.3 0 0 0-1.906.767v15.485h-4.252v-19.051z" class="cls-1" data-name="Path 48" transform="translate(-179.545 -222.357)"/>
            <path id="Path_49" d="M265.7 249.252l-.342-1.648c-1.711 1.418-2.737 1.916-3.959 1.916a3.522 3.522 0 0 1-2.59-1.073c-.538-.652-.684-1.38-.684-3.3V230.2h4.252v14.833c0 .92.342 1.418 1.075 1.418a3.3 3.3 0 0 0 1.906-.767V230.2h4.252v19.049z" class="cls-1" data-name="Path 49" transform="translate(-244.932 -223.687)"/>
            <path id="Path_50" d="M340.964 228.851v2.376c1.124-1.84 2.541-2.721 4.3-2.645v3.718a11.645 11.645 0 0 0-1.564-.153c-1.857 0-2.737.92-2.737 2.836V247.9h-4.252v-19.049z" class="cls-1" data-name="Path 50" transform="translate(-310.319 -222.335)"/>
            <path id="Path_51" d="M394.8 233.664v-.264c0-1.15-.489-1.725-1.417-1.725-.978 0-1.417.575-1.417 1.8 0 1.15.44 1.878 1.759 2.951l1.711 1.38c2.59 2.147 3.519 3.564 3.519 5.481 0 2.951-2.346 4.906-5.865 4.906s-5.719-1.8-5.719-4.638a1.477 1.477 0 0 1 .049-.46l4.106-.23a3.566 3.566 0 0 0-.049.613 1.613 1.613 0 1 0 3.226 0c0-1.188-.44-1.84-2.444-3.488l-1.662-1.342a6.674 6.674 0 0 1-2.786-5.251c0-3.181 1.955-4.791 5.865-4.791 2.3 0 4.008.843 4.741 2.3a5.2 5.2 0 0 1 .44 2.53z" class="cls-1" data-name="Path 51" transform="translate(-352.467 -222.357)"/>
            <path id="Path_52" d="M471.71 241.254v.69a10.017 10.017 0 0 1 .049 1.112c0 3.258-2.151 5.136-5.914 5.136a5.951 5.951 0 0 1-4.4-1.61 4.639 4.639 0 0 1-1.32-3.756v-8.892c0-3.565 1.955-5.328 5.865-5.328 3.568 0 5.718 1.8 5.718 4.753v5.6h-7.331v4.216c0 1.38.44 1.955 1.515 1.955 1.173 0 1.564-.575 1.564-2.261v-1.61zm-4.252-4.945v-3.219a1.322 1.322 0 0 0-1.515-1.418 1.378 1.378 0 0 0-1.564 1.418v3.219z" class="cls-1" data-name="Path 52" transform="translate(-413.008 -222.357)"/>
            <path id="Path_53" d="M539 191.4h4.252v25.565H539z" class="cls-1" data-name="Path 53" transform="translate(-478.635 -191.402)"/>
            <path id="Path_54" d="M577.991 251.859c-.538 2.721-2.688 4.178-6.207 4.178a8.547 8.547 0 0 1-1.271-.115v-3.182h.391c2.248 0 3.079-.767 3.079-2.913a13.319 13.319 0 0 0-.44-3.335l-3.372-16.29h4.154l1.955 11.192 2.053-11.192h4.106z" class="cls-1" data-name="Path 54" transform="translate(-504.573 -223.687)"/>
        </g>
        <g id="Group_45" data-name="Group 45" transform="translate(231.934 102.604)">
            <path id="Path_55" d="M533.8 104.285c-.341.185-.9.555-1.038.654-.085-.555-1.237-2.275-3.37.227-1.841-2.464-3.868-1.052-3.121.893a9.614 9.614 0 0 0 3.149 2.592 12.739 12.739 0 0 0 2.162-1.479 13.03 13.03 0 0 0-.37 1.82l-1.778 1.067s-4.01-2.19-4.451-4.024a2.6 2.6 0 0 1 4.465-2.474c2.152-2.305 4.526.212 4.352.724z" class="cls-2" data-name="Path 55" transform="translate(-519.287 -102.604)"/>
            <path id="Path_56" d="M496.974 115.251c-.01.388.033 1.053.048 1.226-.523-.2-2.589-.064-1.486 3.033-3.054.364-2.843 2.826-.785 3.15a9.614 9.614 0 0 0 3.818-1.434 12.727 12.727 0 0 0-.2-2.611 13.064 13.064 0 0 0 1.392 1.229l.036 2.073s-3.9 2.381-5.709 1.847a2.6 2.6 0 0 1 .086-5.1c-.925-3.016 2.442-3.816 2.8-3.413z" class="cls-1" data-name="Path 56" transform="translate(-491.919 -113.046)"/>
            <path id="Path_57" d="M492.068 165.925c.335.2.938.48 1.1.551-.431.36-1.309 2.235 1.936 2.768-1.158 2.849 1.1 3.855 2.377 2.211a9.61 9.61 0 0 0 .591-4.036 12.726 12.726 0 0 0-2.383-1.086 13.042 13.042 0 0 0 1.75-.624l1.832.971s.2 4.565-1.145 5.89a2.6 2.6 0 0 1-4.426-2.544c-3.086-.649-2.158-3.983-1.632-4.101z" class="cls-3" data-name="Path 57" transform="translate(-491.516 -155.111)"/>
            <path id="Path_58" d="M572.668 123.173c-.327-.208-.92-.513-1.076-.589.443-.344 1.387-2.187-1.837-2.834 1.258-2.806-.961-3.892-2.3-2.293a9.611 9.611 0 0 0-.733 4.012 12.736 12.736 0 0 0 2.343 1.17 13.027 13.027 0 0 0-1.77.562l-1.8-1.035s-.036-4.569 1.353-5.846a2.6 2.6 0 0 1 4.333 2.7c3.062.754 2.019 4.053 1.487 4.153z" class="cls-4" data-name="Path 58" transform="translate(-553.076 -113.308)"/>
            <g id="Group_44" data-name="Group 44" transform="translate(12.516 9.69)">
                <path id="Path_59" d="M569.346 168.889a14.493 14.493 0 0 0-.046-1.226c.523.2 2.589.07 1.492-3.03 3.055-.358 2.849-2.819.792-3.148a9.611 9.611 0 0 0-3.821 1.426 12.72 12.72 0 0 0 .2 2.612 13.039 13.039 0 0 0-1.39-1.232l-.032-2.073s3.905-2.372 5.713-1.834a2.6 2.6 0 0 1-.1 5.1c.917 3.016-2.454 3.81-2.808 3.405z" class="cls-5" data-name="Path 59" transform="translate(-566.455 -160.304)"/>
                <path id="Path_60" d="M573.337 166.242c-.336.2-.941.487-1.1.558.437.36 1.339 2.242-1.928 2.791 1.193 2.86-1.072 3.881-2.377 2.232a9.311 9.311 0 0 1-.578-3.958c.234-.2-.687-.467-1.308-.69 0 0-.119 4.445 1.247 5.773 2.6 2.546 5.231-.228 4.439-2.576 3.102-.664 2.137-4.013 1.605-4.13z" class="cls-6" data-name="Path 60" transform="translate(-566.044 -165.245)"/>
            </g>
        </g>
    </g>
</svg>
