<svg xmlns="http://www.w3.org/2000/svg" viewBox="0 0 15.888 20.239">
    <defs>
        <style>
            <!-- .cls-1{fill:#e82753} -->
        </style>
    </defs>
    <g id="upload_2_" data-name="upload (2)" transform="translate(-56.887 -4)">
        <g id="Group_28" data-name="Group 28" transform="translate(56.887 4)">
            <path id="Path_27" d="M70.072 159.879h-1.7a.59.59 0 1 0 0 1.181h1.7a1.521 1.521 0 0 1 1.517 1.517v8.475a1.521 1.521 0 0 1-1.517 1.517H59.585a1.521 1.521 0 0 1-1.517-1.517v-8.479a1.521 1.521 0 0 1 1.517-1.517h1.7a.59.59 0 1 0 0-1.181h-1.7a2.7 2.7 0 0 0-2.7 2.7v8.475a2.7 2.7 0 0 0 2.7 2.7h10.491a2.7 2.7 0 0 0 2.7-2.7v-8.475a2.705 2.705 0 0 0-2.704-2.696z" class="cls-1" data-name="Path 27" transform="translate(-56.887 -153.507)"/>
            <path id="Path_28" d="M144.73 4.556l2.536-2.536v9.533a.59.59 0 0 0 1.181 0V2.019l2.536 2.536a.594.594 0 0 0 .415.175.576.576 0 0 0 .415-.175.589.589 0 0 0 0-.835L148.268.174a.589.589 0 0 0-.835 0l-3.547 3.546a.589.589 0 0 0 0 .835.6.6 0 0 0 .844.001z" class="cls-1" data-name="Path 28" transform="translate(-139.915)"/>
        </g>
    </g>
</svg>
